<?xml version="1.0" standalone="no"?>
<!DOCTYPE svg PUBLIC "-//W3C//DTD SVG 20010904//EN"
 "http://www.w3.org/TR/2001/REC-SVG-20010904/DTD/svg10.dtd">
<svg version="1.0" xmlns="http://www.w3.org/2000/svg"
 width="300.000000pt" height="300.000000pt" viewBox="0 0 300.000000 300.000000"
 preserveAspectRatio="xMidYMid meet">
<metadata>
Created by potrace 1.11, written by Peter Selinger 2001-2013
</metadata>
<g transform="translate(0.000000,300.000000) scale(0.100000,-0.100000)"
fill="#000000" stroke="none">
<path d="M1125 2983 c-4 -10 -32 -90 -63 -178 -30 -88 -63 -182 -73 -210 -9
-27 -54 -156 -99 -285 -45 -129 -117 -338 -161 -465 -44 -126 -84 -241 -89
-255 -4 -14 -45 -131 -90 -260 -45 -129 -108 -311 -140 -405 -33 -93 -90 -260
-129 -370 -139 -400 -191 -550 -191 -553 0 -1 145 -1 322 0 l322 3 82 260 c45
143 96 305 113 361 l31 101 528 1 528 0 22 -71 c13 -40 42 -135 67 -212 24
-77 65 -209 91 -293 l48 -152 333 0 c183 0 333 2 333 5 0 2 -9 28 -19 57 -11
29 -38 105 -60 168 -22 63 -90 259 -151 435 -62 176 -121 345 -130 375 -10 30
-48 141 -85 245 -37 105 -88 253 -115 330 -26 77 -76 219 -110 315 -33 96 -72
207 -85 245 -13 39 -38 111 -55 160 -61 172 -161 460 -176 505 -8 25 -19 53
-24 62 -6 10 -10 24 -10 32 0 8 -5 27 -12 41 l-11 25 -368 0 c-340 0 -367 -1
-374 -17z m379 -587 c8 -19 23 -66 34 -103 11 -37 91 -293 177 -568 87 -275
158 -506 159 -514 1 -12 -59 -14 -382 -14 -210 0 -385 2 -388 5 -3 3 9 50 26
104 18 55 44 140 60 189 144 460 221 705 261 833 17 56 33 102 35 102 2 0 10
-16 18 -34z"/>
</g>
</svg>
